# xmcd
#
# Track frame offsets: 
#        150
#        13497
#        35195
#        48847
#        65145
#        80847
#        100157
#        113692
#        134645
#        148765
#        186740
#        215202
#        226765
#        251402
#        269352
#        281335
#        296082
#
# Disc length: 4160 seconds
#
# Revision: 11
# Processed by: cddbd v1.5.2PL0 Copyright (c) Steve Scherf et al.
# Submitted via: ExactAudioCopyFreeDBPlugin 1.0
#
DISCID=19103e11
DTITLE=Taj Mahal - The Best Of Taj Mahal
DYEAR=2000
DGENRE=Blues
TTITLE0=Statesboro Blues
TTITLE1=Leaving Trunk
TTITLE2=Corinna
TTITLE3=Going Up To The Country ~ Paint My Mailbox Blue
TTITLE4=She Caught The Katy And Left Me A Mule To Ride
TTITLE5=Take A Giant Step
TTITLE6=Six Days On The Road
TTITLE7=Farther On Down The Road
TTITLE8=Fishin' Blues
TTITLE9=Ain't Gwine To Whistle Dixie (Any Mo') (Live)
TTITLE10=You're going To Need Somebody on Your Bond  (Live)
TTITLE11=Cakewalk Into Town
TTITLE12=Oh, Susanna
TTITLE13=Frankie And Albert
TTITLE14=Chevrolet
TTITLE15=Johnny Too Bad
TTITLE16=Sweet Mama Janisse  (previously unissued studio recording)
EXTD=\n YEAR: 2000
EXTT0=
EXTT1=
EXTT2=
EXTT3=
EXTT4=
EXTT5=
EXTT6=
EXTT7=
EXTT8=
EXTT9=
EXTT10=
EXTT11=
EXTT12=
EXTT13=
EXTT14=
EXTT15=
EXTT16=
PLAYORDER=
